<?xml version="1.0" encoding="UTF-8"?>
<svg id="Camada_2" data-name="Camada 2" xmlns="http://www.w3.org/2000/svg" viewBox="0 0 387.47 119.15">
  <defs>
    <style>
      .cls-1 {
        fill: #f28019;
      }
    </style>
  </defs>
  <g id="Layer_1" data-name="Layer 1">
    <g>
      <rect class="cls-1" width="68.36" height="119.15" rx="3.76" ry="3.76"/>
      <path class="cls-1" d="M81.2,115.39V3.86c0-2.15,1.79-3.87,3.94-3.76,35.93,1.87,64.42,29.09,64.42,62.41v52.88c0,2.08-1.69,3.76-3.76,3.76h-60.84c-2.08,0-3.76-1.69-3.76-3.76Z"/>
      <path class="cls-1" d="M162.39,115.39V13.34c0-2.15,1.79-3.87,3.94-3.76,35.93,1.87,64.42,29.09,64.42,62.41v43.4c0,2.08-1.69,3.76-3.76,3.76h-60.84c-2.08,0-3.76-1.69-3.76-3.76Z"/>
      <path class="cls-1" d="M362.62,62.96c2.35,0,4.14,2.13,3.7,4.44-5.57,29.43-33.6,51.75-67.45,51.75h-44.86c-2.08,0-3.76-1.69-3.76-3.76v-48.66c0-2.08,1.69-3.76,3.76-3.76h108.61ZM276.98,51.45c-2.48,0-4.31-2.37-3.63-4.75C280.97,19.76,307.61,0,339.1,0h44.61c2.08,0,3.76,1.69,3.76,3.76v43.92c0,2.08-1.69,3.76-3.76,3.76h-106.73Z"/>
    </g>
  </g>
</svg>