<svg width="288" height="115" viewBox="0 0 288 115" fill="none" xmlns="http://www.w3.org/2000/svg">
<path d="M166.213 83.5667V31.4333H172.653C190.133 31.4333 201.48 39.2533 201.48 57.3467V57.6533C201.48 75.5933 190.133 83.5667 172.653 83.5667H166.213ZM127.88 115H170.353C216.66 115 239.813 90.9267 239.813 56.8867V56.58C239.967 22.54 217.12 0 171.733 0H127.88V115Z" fill="#006B2D"/>
<path d="M23.92 79.2734H84.0266V39.7134H23.92V79.2734Z" fill="#E30613"/>
<path d="M251.927 115H287.807V0H251.927V115Z" fill="#006B2D"/>
<path d="M0 115H36.0333V0H0V115Z" fill="#006B2D"/>
<path d="M75.9 115H111.933V0H75.9V115Z" fill="#006B2D"/>
</svg>
