<svg width="496" height="162" viewBox="0 0 496 162" fill="none" xmlns="http://www.w3.org/2000/svg">
<path d="M35.3382 60.9802L0 6.10352e-05H35.1894C42.1579 6.10352e-05 46.5721 2.67833 49.7959 8.50604L77.1489 59.1203H79.5296L106.535 6.10352e-05H135.079L80.5216 116.901H51.9782L74.5699 69.9822C77.1241 64.7992 75.5866 60.9802 68.4446 60.9802H35.2886H35.3382ZM164.143 32.2384C198.142 32.2384 209.847 56.1197 206.276 80.844H147.825C147.825 95.2025 155.984 100.733 164.986 100.733C172.971 100.733 178.08 96.7152 179.94 90.218H206.623C202.879 109.412 185.892 119.109 164.986 119.109C134.062 119.109 119.778 100.906 119.778 75.8595C119.778 48.804 136.616 32.2632 164.118 32.2632L164.143 32.2384ZM178.923 69.3374C178.923 56.9628 174.013 50.2919 163.473 50.2919C153.777 50.2919 147.825 57.31 147.825 69.3374H178.923ZM220.387 6.10352e-05H247.566V116.901H220.387V6.10352e-05ZM290.393 34.4207V83.0263C290.393 93.7146 295.328 98.5503 303.983 98.5503C313.828 98.5503 318.59 91.7059 318.59 80.6704V34.4207H345.769V116.926H321.987V95.2025H319.284C315.887 110.9 307.728 119.084 292.948 119.084C273.902 119.084 263.214 107.403 263.214 85.1838V34.4207H290.418H290.393ZM386.216 34.4207V56.2932H388.919C392.143 41.2652 399.632 32.2384 414.759 32.2384C429.887 32.2384 438.541 42.4307 438.541 56.2932H441.244C444.468 41.4388 451.437 32.2384 468.101 32.2384C485.783 32.2384 494.264 43.5963 494.264 62.6417V116.926H467.085V66.9815C467.085 58.4755 463.514 52.7966 455.528 52.7966C446.179 52.7966 441.939 60.633 441.939 70.3293V116.926H414.759V66.9815C414.759 58.4755 411.188 52.7966 403.203 52.7966C393.854 52.7966 389.613 60.633 389.613 70.3293V116.926H362.434V34.4207H386.241H386.216Z" fill="#FFC900"/>
<path d="M327.567 155.885C325.732 155.885 324.244 155.588 323.078 154.968C321.913 154.348 321.07 153.579 320.524 152.637C319.979 151.694 319.656 150.702 319.582 149.71H323.525C323.599 150.281 323.822 150.801 324.145 151.297C324.467 151.793 324.938 152.19 325.534 152.488C326.129 152.785 326.848 152.934 327.765 152.934C328.782 152.934 329.526 152.736 330.047 152.364C330.543 151.992 330.816 151.471 330.816 150.826C330.816 150.256 330.592 149.785 330.171 149.413C329.749 149.016 329.08 148.669 328.162 148.371L325.98 147.627C324.963 147.255 324.046 146.883 323.227 146.437C322.409 146.015 321.739 145.47 321.219 144.825C320.723 144.18 320.475 143.337 320.475 142.295C320.475 140.733 321.07 139.468 322.235 138.526C323.401 137.584 325.038 137.113 327.145 137.113C328.658 137.113 329.898 137.361 330.89 137.857C331.857 138.352 332.626 138.997 333.122 139.816C333.618 140.634 333.915 141.552 334.015 142.568H330.22C330.146 141.824 329.848 141.204 329.328 140.708C328.807 140.212 328.038 139.964 326.997 139.964C326.129 139.964 325.459 140.138 325.013 140.485C324.566 140.832 324.318 141.304 324.318 141.924C324.318 142.543 324.542 143.015 325.013 143.411C325.459 143.808 326.153 144.155 327.096 144.478L329.253 145.172C330.27 145.519 331.188 145.891 332.006 146.313C332.824 146.734 333.494 147.28 333.965 147.95C334.436 148.619 334.684 149.462 334.684 150.504C334.684 152.116 334.089 153.43 332.874 154.422C331.659 155.414 329.923 155.91 327.617 155.91L327.567 155.885Z" fill="#FFC900"/>
<path d="M345.075 155.885C342.322 155.885 340.19 155.017 338.751 153.331C337.288 151.62 336.594 149.338 336.594 146.486C336.594 144.577 336.916 142.94 337.561 141.527C338.206 140.138 339.148 139.047 340.413 138.278C341.653 137.509 343.19 137.113 345.025 137.113C347.629 137.113 349.613 137.906 351.002 139.518C352.391 141.13 353.06 143.436 353.06 146.511V147.503H340.562C340.661 149.14 341.082 150.454 341.851 151.446C342.62 152.438 343.686 152.934 345.075 152.934C346.116 152.934 346.984 152.637 347.629 152.041C348.274 151.446 348.72 150.677 348.968 149.735H352.837C352.614 150.901 352.192 151.917 351.572 152.835C350.952 153.753 350.109 154.496 349.043 155.067C347.976 155.637 346.637 155.91 345.075 155.91V155.885ZM340.562 144.8H349.018C348.944 143.238 348.572 142.072 347.877 141.229C347.183 140.411 346.216 139.989 344.951 139.989C343.686 139.989 342.669 140.386 341.926 141.204C341.182 142.023 340.735 143.213 340.562 144.775V144.8Z" fill="#FFC900"/>
<path d="M363.674 161.812C362.186 161.812 360.946 161.638 360.003 161.266C359.036 160.894 358.268 160.448 357.722 159.878C357.176 159.307 356.755 158.712 356.482 158.092C356.234 157.472 356.06 156.902 356.011 156.406H360.053C360.177 157.026 360.524 157.596 361.07 158.092C361.615 158.588 362.508 158.861 363.748 158.861C365.112 158.861 366.129 158.489 366.848 157.72C367.542 156.976 367.914 155.811 367.914 154.248V152.19H367.195C366.898 153.008 366.352 153.678 365.583 154.174C364.814 154.67 363.773 154.943 362.483 154.943C360.177 154.943 358.391 154.124 357.127 152.512C355.862 150.9 355.217 148.718 355.217 145.941C355.217 144.18 355.49 142.618 356.06 141.279C356.606 139.939 357.449 138.898 358.54 138.179C359.631 137.435 360.971 137.063 362.508 137.063C363.847 137.063 364.889 137.311 365.658 137.832C366.426 138.327 366.972 138.972 367.319 139.766H368.038V137.534H371.783V154.248C371.783 156.679 371.113 158.538 369.774 159.828C368.435 161.142 366.426 161.787 363.748 161.787L363.674 161.812ZM363.326 151.917C364.715 151.917 365.782 151.372 366.55 150.305C367.319 149.214 367.716 147.801 367.716 146.015C367.716 144.23 367.319 142.816 366.55 141.75C365.782 140.683 364.715 140.138 363.376 140.138C362.111 140.138 361.119 140.634 360.4 141.651C359.706 142.642 359.334 144.106 359.334 146.015C359.334 147.925 359.681 149.437 360.4 150.429C361.095 151.421 362.087 151.917 363.351 151.917H363.326Z" fill="#FFC900"/>
<path d="M381.777 155.885C379.718 155.885 378.181 155.24 377.189 153.976C376.197 152.711 375.676 151.024 375.676 148.966V137.534H379.768V148.222C379.768 149.586 380.016 150.652 380.512 151.421C381.008 152.165 381.826 152.562 382.918 152.562C384.281 152.562 385.323 152.041 386.042 151C386.761 149.958 387.133 148.693 387.133 147.181V137.559H391.225V155.463H387.555V152.785H386.836C386.538 153.728 385.968 154.471 385.125 155.042C384.281 155.612 383.165 155.91 381.777 155.91V155.885Z" fill="#FFC900"/>
<path d="M395.366 155.439V137.534H399.061V140.708H399.781C399.905 140.138 400.128 139.617 400.45 139.121C400.773 138.625 401.269 138.203 401.963 137.881C402.633 137.559 403.55 137.385 404.74 137.385H405.534V141.08H404.418C402.657 141.08 401.393 141.527 400.624 142.394C399.855 143.287 399.458 144.651 399.458 146.486V155.439H395.366Z" fill="#FFC900"/>
<path d="M414.486 155.836C412.85 155.836 411.486 155.439 410.395 154.645C409.303 153.852 408.485 152.761 407.939 151.347C407.394 149.934 407.121 148.297 407.121 146.462C407.121 144.627 407.394 142.965 407.939 141.552C408.485 140.138 409.328 139.072 410.419 138.278C411.51 137.509 412.874 137.113 414.486 137.113C415.825 137.113 416.892 137.361 417.71 137.906C418.529 138.427 419.124 139.096 419.496 139.865H420.215V137.534H423.959V155.439H420.215V153.108H419.496C419.124 153.852 418.529 154.472 417.71 155.017C416.892 155.563 415.825 155.836 414.486 155.836ZM415.379 152.785C416.768 152.785 417.859 152.215 418.677 151.074C419.496 149.934 419.917 148.396 419.917 146.486C419.917 144.577 419.496 143.015 418.677 141.874C417.859 140.733 416.768 140.163 415.379 140.163C414.09 140.163 413.098 140.708 412.378 141.775C411.684 142.866 411.312 144.428 411.312 146.462C411.312 148.495 411.659 150.058 412.378 151.149C413.098 152.24 414.09 152.761 415.379 152.761V152.785Z" fill="#FFC900"/>
<path d="M434.4 155.836C432.788 155.836 431.424 155.439 430.358 154.645C429.267 153.852 428.473 152.761 427.927 151.347C427.382 149.933 427.109 148.297 427.109 146.462C427.109 144.627 427.382 142.965 427.927 141.551C428.473 140.138 429.316 139.072 430.383 138.278C431.474 137.509 432.788 137.113 434.375 137.113C435.59 137.113 436.582 137.336 437.351 137.782C438.12 138.228 438.715 138.824 439.112 139.592H439.831V131.582H443.923V155.439H440.178V153.108H439.459C439.087 153.852 438.492 154.472 437.673 155.017C436.855 155.563 435.764 155.836 434.375 155.836H434.4ZM435.367 152.785C436.756 152.785 437.847 152.215 438.665 151.074C439.484 149.933 439.905 148.396 439.905 146.486C439.905 144.577 439.484 143.015 438.665 141.874C437.847 140.733 436.756 140.163 435.367 140.163C434.078 140.163 433.086 140.708 432.366 141.775C431.672 142.866 431.3 144.428 431.3 146.462C431.3 148.495 431.647 150.057 432.366 151.149C433.061 152.215 434.078 152.761 435.367 152.761V152.785Z" fill="#FFC900"/>
<path d="M455.678 155.885C452.776 155.885 450.619 155.042 449.23 153.331C447.816 151.645 447.097 149.363 447.097 146.486C447.097 143.61 447.792 141.328 449.23 139.642C450.643 137.956 452.801 137.088 455.678 137.088C458.554 137.088 460.737 137.931 462.125 139.642C463.539 141.328 464.258 143.61 464.258 146.486C464.258 149.363 463.564 151.645 462.125 153.331C460.712 155.017 458.554 155.885 455.678 155.885ZM455.678 152.959C457.165 152.959 458.281 152.388 458.976 151.273C459.67 150.157 460.042 148.545 460.042 146.486C460.042 144.428 459.695 142.791 458.976 141.7C458.281 140.584 457.165 140.039 455.678 140.039C454.19 140.039 453.049 140.609 452.355 141.7C451.66 142.816 451.313 144.403 451.313 146.486C451.313 148.569 451.66 150.157 452.355 151.273C453.049 152.388 454.165 152.959 455.678 152.959Z" fill="#FFC900"/>
<path d="M467.407 155.439V137.534H471.102V140.708H471.821C471.945 140.138 472.169 139.617 472.491 139.121C472.813 138.625 473.309 138.203 474.004 137.881C474.673 137.559 475.591 137.385 476.781 137.385H477.575V141.08H476.459C474.698 141.08 473.433 141.527 472.665 142.394C471.896 143.287 471.499 144.651 471.499 146.486V155.439H467.407Z" fill="#FFC900"/>
<path d="M486.527 155.836C484.89 155.836 483.526 155.439 482.435 154.645C481.344 153.852 480.526 152.761 479.98 151.347C479.434 149.934 479.162 148.297 479.162 146.462C479.162 144.627 479.434 142.965 479.98 141.552C480.526 140.138 481.369 139.072 482.46 138.278C483.551 137.509 484.915 137.113 486.527 137.113C487.866 137.113 488.932 137.361 489.751 137.906C490.569 138.427 491.164 139.096 491.536 139.865H492.255V137.534H496V155.439H492.255V153.108H491.536C491.164 153.852 490.569 154.472 489.751 155.017C488.932 155.563 487.866 155.836 486.527 155.836ZM487.42 152.785C488.808 152.785 489.899 152.215 490.718 151.074C491.536 149.934 491.958 148.396 491.958 146.486C491.958 144.577 491.536 143.015 490.718 141.874C489.899 140.733 488.808 140.163 487.42 140.163C486.13 140.163 485.138 140.708 484.419 141.775C483.725 142.866 483.353 144.428 483.353 146.462C483.353 148.495 483.7 150.058 484.419 151.149C485.113 152.215 486.13 152.761 487.42 152.761V152.785Z" fill="#FFC900"/>
</svg>
